<svg xmlns="http://www.w3.org/2000/svg" viewBox="0 0 539.9 117.8"><defs><style>.cls-1{fill:#fff;}.cls-2{fill:#1c89ea;}</style></defs><g id="Layer_2" data-name="Layer 2"><g id="Layer_1-2" data-name="Layer 1"><path class="cls-1" d="M167.7,53.2,116.8,2.3A7.9,7.9,0,0,0,111.2,0a8.1,8.1,0,0,0-5.7,2.3l-9.9,10a1.9,1.9,0,0,0,0,2.8l7,7.1a2.1,2.1,0,0,0,2.9,0l4.3-4.3a1.9,1.9,0,0,1,2.8,0l39.6,39.6a1.9,1.9,0,0,1,0,2.8L112.6,99.9a1.9,1.9,0,0,1-2.8,0L70.2,60.3a1.9,1.9,0,0,1,0-2.8l4-4a2.1,2.1,0,0,0,0-2.9l-7.1-7a1.9,1.9,0,0,0-2.8,0l-9.7,9.6a8,8,0,0,0,0,11.3l50.9,50.9a8.2,8.2,0,0,0,5.7,2.4,8,8,0,0,0,5.6-2.4l50.9-50.9A7.9,7.9,0,0,0,167.7,53.2Z"/><path class="cls-2" d="M2.3,64.5l50.9,50.9a8.2,8.2,0,0,0,5.7,2.4,8,8,0,0,0,5.6-2.4l10-9.9a2.1,2.1,0,0,0,0-2.9l-7.1-7a1.9,1.9,0,0,0-2.8,0l-4.3,4.3a1.9,1.9,0,0,1-2.8,0L17.9,60.3a1.9,1.9,0,0,1,0-2.8L57.5,17.9a1.9,1.9,0,0,1,2.8,0L99.9,57.5a1.9,1.9,0,0,1,0,2.8l-4,4a1.9,1.9,0,0,0,0,2.8l7,7.1a2.1,2.1,0,0,0,2.9,0l9.6-9.7a7.9,7.9,0,0,0,0-11.3L64.5,2.3A7.9,7.9,0,0,0,58.9,0a8.1,8.1,0,0,0-5.7,2.3L2.3,53.2A8,8,0,0,0,2.3,64.5Z"/><path class="cls-1" d="M204.6,58.9c0-22.3,15.4-37.6,35.4-37.6s32.3,11.4,33.6,29.9l-9.6.6c-.8-13.3-9.3-22-23.9-22S214.8,41.1,214.8,59,225.4,88.1,241,88.1c13.6,0,22.3-8.5,23.6-20.9H242.5V59.3h31.2V95.1h-9.1V82.2c-3.2,9.2-13.4,14.3-24.7,14.3C219.4,96.5,204.6,81.4,204.6,58.9Z"/><path class="cls-1" d="M296.1,22.7V95.1h-9.5V22.7Z"/><path class="cls-1" d="M342.9,44.9h9.6V95.1h-9.6V86.3c-2.4,5.9-8.8,10.2-16.4,10.2-13.1,0-18-8.6-18-20.4V44.9h9.6V75.2c0,8.4,3.7,13.8,11.6,13.8s13.2-6,13.2-15.3Z"/><path class="cls-1" d="M411.7,78.2c-2.5,11.4-10.9,18.3-23.5,18.3-14.9,0-25.8-10.1-25.8-25.8s10.9-27.2,25.4-27.2c16,0,24.1,11.4,24.1,25v3.8h-40c.5,9.8,7.5,16.7,16.4,16.7s13.4-4,15.5-11.7Zm-9.6-12.1c-.3-8-4.8-15.4-14.3-15.4s-14.5,7.2-15.7,15.4Z"/><path class="cls-1" d="M470.9,67.6h12.5v8.2H470.9V95.1h-9.7V75.8H423.1V66.4l35.8-43.7h12Zm-39.2,0h29.5v-36Z"/><path class="cls-1" d="M539.9,86.5v8.6H486.7V89.4l20.5-17.6c11.3-9.9,19.9-17.3,19.9-27.9,0-8.5-4.9-14.5-14.4-14.5s-15.4,6.4-15.4,17a24.6,24.6,0,0,0,.8,6.5l-9.9-.5a32.2,32.2,0,0,1-.8-6.7c0-14.9,10-24.4,25.4-24.4,16.9,0,24.6,9.9,24.6,22.2s-11.1,23.1-21.6,31.7L502.1,86.5Z"/></g></g></svg>