<svg width="283" height="68" viewBox="0 0 283 68" fill="none" xmlns="http://www.w3.org/2000/svg">
<g opacity="0.8">
<path d="M40.1 56.5H7.9C4.4 56.5 1.5 53.6 1.5 50.1V17.9C1.5 14.4 4.4 11.5 7.9 11.5H40C43.5 11.5 46.4 14.4 46.4 17.9V50C46.5 53.6 43.6 56.5 40.1 56.5Z" fill="#212121"/>
</g>
<path d="M15 16H6V31H15V16Z" fill="white"/>
<path d="M15 43H6V52H15V43Z" fill="white"/>
<path d="M42 34H18V52H42V34Z" fill="#0088F1"/>
<path d="M42 16H18V31H42V16Z" fill="white"/>
<path d="M15 34H6V40H15V34Z" fill="white"/>
<path d="M27 47.2V46.9C27 46.9 26.7 46.6 26.7 46.9H26.4C26.4 46.9 26.4 47.2 26.1 47.2C26.1 47.5 26.1 47.5 26.4 47.5C26.4 47.5 26.7 47.5 26.7 47.8C26.7 47.8 27 47.8 27 47.5V47.2ZM32.1 43.9L26.7 49.3C26.4 49.6 26.4 49.6 26.1 49.6C25.8 49.6 25.5 49.6 25.5 49.3L24.6 48.4C24 48.1 24 48.1 24 47.8C24 47.5 24 47.2 24.3 47.2L29.7 41.8C30 42.4 30.3 42.7 30.6 43.3C30.9 43.3 31.5 43.6 32.1 43.9ZM37.2 40.3C37.2 40.6 37.2 40.9 36.9 41.2C36.6 41.8 36.3 42.4 35.7 43C35.1 43.3 34.5 43.6 33.6 43.6C32.7 43.6 31.8 43.3 31.2 42.7C30.3 41.8 30 40.9 30 40C30 39.1 30.3 38.2 30.9 37.6C31.5 37 32.4 36.7 33.3 36.4C33.6 36.4 33.9 36.4 34.2 36.4C34.5 36.4 34.8 36.7 35.1 36.7C35.1 36.7 35.1 36.7 35.1 37C35.1 37.3 35.1 37.3 35.1 37.3L33 38.8V40.6L34.5 41.5C34.5 41.5 34.8 41.5 35.1 41.2C35.4 40.9 36 40.6 36.3 40.6C36.6 40.6 36.6 40 37.2 40.3C36.9 40 36.9 40 37.2 40.3Z" fill="white"/>
<path d="M67.8025 38.2H61.9025L60.6025 42H58.4025L63.5025 27.6H66.2025L71.3025 42H69.1025L67.8025 38.2ZM67.2025 36.3L64.9025 29.8L62.6025 36.3H67.2025Z" fill="white"/>
<path d="M83.3025 26.8V42H81.3025V40.3C80.4025 41.5 79.1025 42.2 77.4025 42.2C74.3025 42.2 72.0025 39.8 72.0025 36.5C72.0025 33.3 74.2025 30.8 77.3025 30.8C78.9025 30.8 80.2025 31.4 81.1025 32.5V26.8H83.3025ZM81.1025 36.5C81.1025 34.3 79.7025 32.7 77.6025 32.7C75.6025 32.7 74.1025 34.3 74.1025 36.5C74.1025 38.7 75.6025 40.3 77.6025 40.3C79.7025 40.2 81.1025 38.7 81.1025 36.5Z" fill="white"/>
<path d="M103.103 35.2V42H100.903V35.6C100.903 34 99.9025 32.7 98.3025 32.8C96.6025 32.8 95.6025 34.1 95.6025 35.2V42H93.4025V35.6C93.4025 34 92.4025 32.7 90.8025 32.8C89.1025 32.8 88.1025 34.1 88.1025 35.2V42H85.9025V31H88.0025V32.4C88.7025 31.5 89.9025 30.8 91.4025 30.8C93.2025 30.8 94.4025 31.5 95.0025 32.8C95.6025 31.7 96.9025 30.8 98.8025 30.8C101.603 30.7 103.103 32.7 103.103 35.2Z" fill="white"/>
<path d="M105.203 27.6C105.203 26.7 105.903 26 106.803 26C107.703 26 108.403 26.7 108.403 27.6C108.403 28.5 107.703 29.1 106.803 29.1C105.903 29.1 105.203 28.5 105.203 27.6ZM105.703 31H107.903V41.9H105.703V31Z" fill="white"/>
<path d="M120.603 35.2V41.9H118.403V35.6C118.403 33.8 117.303 32.7 115.603 32.7C114.003 32.7 112.803 33.9 112.703 35.3V42H110.503V31H112.603V32.4C113.303 31.4 114.603 30.8 116.203 30.8C119.003 30.7 120.603 32.5 120.603 35.2Z" fill="white"/>
<path d="M138.803 27.5V36.5C138.803 39.6 137.003 42.2 133.303 42.2C129.603 42.2 127.702 39.6 127.702 36.5V27.5H129.903V36.5C129.903 38.6 131.003 40.1 133.303 40.1C135.503 40.1 136.603 38.5 136.603 36.5V27.5H138.803Z" fill="white"/>
<path d="M141.803 27.5H144.003V41.9H141.803V27.5Z" fill="white"/>
</svg>
